<svg width="120" height="47" viewBox="0 0 120 47" fill="none" xmlns="http://www.w3.org/2000/svg">
<path d="M115.273 27.9058C114.652 28.2031 113.98 28.3518 113.259 28.3518C112.408 28.3518 111.646 28.1957 110.973 27.8873C110.301 27.5788 109.728 27.1663 109.249 26.646C108.77 26.1294 108.409 25.5348 108.164 24.8659C107.919 24.1932 107.796 23.4983 107.796 22.7736C107.796 22.0489 107.919 21.354 108.164 20.6813C108.409 20.0087 108.77 19.4178 109.249 18.9012C109.728 18.3846 110.301 17.9721 110.973 17.6599C111.646 17.3515 112.408 17.1954 113.259 17.1954C113.88 17.1954 114.485 17.3626 115.08 17.7008C115.674 18.0353 116.243 18.4887 116.786 19.0573L120 15.8427C119.097 14.8616 118.045 14.1443 116.845 13.6946C115.645 13.2449 114.448 13.0183 113.263 13.0183C111.869 13.0183 110.55 13.2524 109.312 13.7169C108.071 14.1815 107.001 14.8393 106.098 15.694C105.194 16.545 104.477 17.5745 103.949 18.7748C103.715 19.31 103.533 19.8712 103.403 20.4583C103.303 19.9418 103.169 19.4363 103.002 18.9495C102.589 17.764 101.98 16.7309 101.181 15.8501C100.382 14.973 99.4119 14.2818 98.2747 13.7764C97.1375 13.271 95.8591 13.022 94.4394 13.022C93.1238 13.022 91.8975 13.2821 90.7603 13.795C89.6231 14.3115 88.72 15.1366 88.0474 16.2738H87.9693V13.4865H78.6748V8.10156H74.0257V13.4865H70.1904V17.437H74.0257V25.9585C74.0257 27.0436 74.1111 27.9987 74.2784 28.8238C74.4456 29.6488 74.7541 30.34 75.2075 30.8975C75.6571 31.4512 76.2778 31.8674 77.0656 32.1387C77.8535 32.41 78.868 32.5438 80.1056 32.5438C80.6482 32.5438 81.2725 32.4992 81.9823 32.41C82.0009 32.41 82.0195 32.4026 82.0381 32.4026V28.5488C81.7668 28.5785 81.5103 28.5971 81.2651 28.5971C80.2319 28.5971 79.5407 28.3258 79.1914 27.7832C78.842 27.2406 78.6674 26.5048 78.6674 25.5757V17.4407H83.5469V28.1585C83.5469 28.1585 83.5357 28.166 83.5283 28.1697V32.0347C83.5283 32.0347 83.5395 32.031 83.5469 32.0272V40.9167H88.196V29.7231H88.3112C88.5453 30.0316 88.8389 30.3512 89.2031 30.6708C89.5636 30.9941 90.0021 31.2988 90.5187 31.5813C91.0353 31.8674 91.6299 32.0978 92.2988 32.2799C92.9715 32.462 93.7445 32.5512 94.6215 32.5512C95.9371 32.5512 97.1523 32.2985 98.2635 31.7968C99.3747 31.2951 100.322 30.6039 101.11 29.7231C101.898 28.8461 102.511 27.8129 102.95 26.6237C103.132 26.1257 103.277 25.6129 103.385 25.0814C103.515 25.6798 103.697 26.2521 103.938 26.7984C104.466 27.9987 105.183 29.0244 106.086 29.8792C106.989 30.7302 108.063 31.388 109.301 31.8563C110.542 32.3208 111.858 32.555 113.251 32.555C113.664 32.555 114.155 32.5104 114.723 32.4212C115.292 32.332 115.886 32.1833 116.503 31.9752C117.124 31.7671 117.737 31.4958 118.343 31.1613C118.949 30.8269 119.487 30.4255 119.952 29.961L116.853 26.6311C116.414 27.1997 115.883 27.6308 115.266 27.9281L115.273 27.9058ZM98.598 24.8659C98.3527 25.5385 97.9922 26.1332 97.5128 26.646C97.0334 27.1626 96.4611 27.5751 95.7885 27.8873C95.1158 28.1957 94.354 28.3518 93.5029 28.3518C92.6519 28.3518 91.89 28.1957 91.2174 27.8873C90.5447 27.5788 89.9724 27.1663 89.493 26.646C89.0136 26.1294 88.6531 25.5348 88.4078 24.8659C88.1626 24.1932 88.0399 23.4983 88.0399 22.7736C88.0399 22.0489 88.1626 21.354 88.4078 20.6813C88.6531 20.0087 89.0136 19.4178 89.493 18.9012C89.9687 18.3846 90.5447 17.9721 91.2174 17.6599C91.89 17.3515 92.6519 17.1954 93.5029 17.1954C94.354 17.1954 95.1158 17.3515 95.7885 17.6599C96.4611 17.9684 97.0334 18.3846 97.5128 18.9012C97.9885 19.4178 98.3527 20.0124 98.598 20.6813C98.8433 21.354 98.9659 22.0489 98.9659 22.7736C98.9659 23.4983 98.8433 24.1932 98.598 24.8659Z" fill="#000B8C"/>
<path d="M30.4549 15.1775H15.2402V31.1131H30.4549V15.1775Z" fill="#53BD8B"/>
<path d="M30.4551 46.2942V31.1167H15.259L15.259 46.2942H30.4551Z" fill="#61B0BC"/>
<path d="M30.5373 0H15.2744V31.1168H30.5373C39.1295 31.1168 46.0939 24.1524 46.0939 15.5602C46.0976 6.96439 39.1295 0 30.5373 0Z" fill="#FF8300"/>
<path d="M30.4555 15.1775H15.1963V31.1131H30.4555V15.1775Z" fill="#000B8C"/>
<path d="M15.2592 15.1775H0V31.1131H15.2592V15.1775Z" fill="#61B0BC"/>
<path d="M46.0077 15.1775C37.4156 15.1775 30.4512 22.1419 30.4512 30.734C30.4512 39.3261 37.4156 46.2905 46.0077 46.2905H58.7398V15.1775H46.0077Z" fill="#0071CE"/>
<path d="M30.4473 30.7377C30.4473 30.864 30.4547 30.9904 30.4584 31.1167H30.5402C39.1323 31.1167 46.0967 24.1524 46.0967 15.5602C46.0967 15.4339 46.0893 15.3075 46.0855 15.1812H46.0038C37.4117 15.1812 30.4473 22.1455 30.4473 30.7377Z" fill="#000B8C"/>
</svg>
